<?xml version="1.0" encoding="UTF-8" standalone="no"?>
<svg
   viewBox="0 0 126.72896 109.44584"
   width="126.72896"
   height="109.44584"
   version="1.1"
   id="svg84"
   sodipodi:docname="Bullseye_logo.svg"
   inkscape:version="1.1 (c68e22c387, 2021-05-23)"
   xmlns:inkscape="http://www.inkscape.org/namespaces/inkscape"
   xmlns:sodipodi="http://sodipodi.sourceforge.net/DTD/sodipodi-0.dtd"
   xmlns="http://www.w3.org/2000/svg"
   xmlns:svg="http://www.w3.org/2000/svg">
  <defs
     id="defs88" />
  <sodipodi:namedview
     id="namedview86"
     pagecolor="#ffffff"
     bordercolor="#666666"
     borderopacity="1.0"
     inkscape:pageshadow="2"
     inkscape:pageopacity="1"
     inkscape:pagecheckerboard="true"
     showgrid="false"
     inkscape:zoom="5.3550852"
     inkscape:cx="47.898398"
     inkscape:cy="53.874026"
     inkscape:window-width="1920"
     inkscape:window-height="1017"
     inkscape:window-x="-8"
     inkscape:window-y="-8"
     inkscape:window-maximized="1"
     inkscape:current-layer="g82" />
  <g
     transform="matrix(0.7605,0,0,0.7605,454.65983,221.26139)"
     id="g82"
     inkscape:label="g82">
    <g
       transform="translate(-519.1341,-262.4322)"
       id="g20">
      <path
         fill-mode="evenodd"
         fill="#e71224"
         d="m 16.629,-7.597 1.653,0.158 1.652,0.078 0.071,0.018 0.418,0.029 1.801,0.257 0.159,0.054 0.294,0.034 1.628,0.387 1.797,0.311 0.184,0.068 0.273,0.037 1.895,0.515 0.322,0.15 0.258,0.051 1.892,0.772 0.091,0.075 0.148,0.034 1.804,0.858 0.137,0.121 0.185,0.05 1.798,1.026 0.082,0.082 0.205,0.098 1.792,1.194 10e-4,10e-4 1.771,1.18 0.159,0.175 0.319,0.188 1.547,1.315 1.468,1.081 0.097,0.115 0.18,0.105 1.695,1.442 0.17,0.221 0.247,0.175 1.33,1.408 1.411,1.333 0.088,0.125 0.125,0.088 1.433,1.517 0.048,0.075 0.063,0.046 1.346,1.514 0.044,0.072 0.054,0.042 1.344,1.596 0.053,0.089 0.06,0.049 1.258,1.593 0.197,0.355 0.161,0.154 1.084,1.751 10e-4,0.002 0.987,1.562 v 0.001 l 1.06,1.629 0.058,0.196 0.156,0.161 0.915,1.661 0.032,0.127 0.079,0.086 0.83,1.658 0.005,0.02 0.009,0.01 0.83,1.658 0.034,0.141 0.073,0.086 0.746,1.655 0.042,0.192 0.138,0.256 0.495,1.397 0.012,0.068 0.03,0.058 0.495,1.482 0.004,0.024 0.007,0.013 0.496,1.482 0.032,0.197 0.077,0.171 0.414,1.566 0.032,0.245 0.058,0.152 0.332,1.739 0.06,0.624 0.032,0.129 0.079,1.493 0.156,1.635 0.026,0.529 -0.006,0.254 -0.085,1.785 -0.016,0.064 -0.027,0.391 -0.256,1.885 -10e-4,0.003 -0.252,1.854 -0.064,0.192 -0.043,0.354 -0.515,2.063 -0.046,0.104 -0.018,0.118 -0.601,1.98 -10e-4,0.002 -0.572,1.964 -0.142,0.293 -0.045,0.228 -0.857,2.061 -0.126,0.151 -0.056,0.23 -1.027,1.97 -0.019,0.02 -0.006,0.025 -1.111,2.053 -0.113,0.117 -0.04,0.143 -1.28,2.047 -0.036,0.034 -0.036,0.076 -1.362,2.045 -0.069,0.062 -0.068,0.131 -1.33,1.8 -1.265,1.977 -0.022,0.02 -0.02,0.043 -1.362,2.045 -0.145,0.131 -0.154,0.269 -1.526,1.866 -0.192,0.151 -0.158,0.235 -1.727,1.726 -1.645,1.728 -0.052,0.036 -0.037,0.055 -1.773,1.772 -0.173,0.117 -0.112,0.149 -1.851,1.598 -0.132,0.079 -0.074,0.091 -1.93,1.51 -0.107,0.06 -0.054,0.062 -1.842,1.341 -0.102,0.052 -0.046,0.051 -1.839,1.255 -0.222,0.109 -0.088,0.088 -1.832,1.084 -0.015,0.004 -0.01,0.009 -1.832,1.084 -0.156,0.043 -0.115,0.108 -1.913,0.999 -0.118,0.029 -0.077,0.068 -1.91,0.914 -0.205,0.047 -0.305,0.168 -1.82,0.664 -0.007,0.001 -1.691,0.645 -0.286,0.054 -0.303,0.135 -1.904,0.498 -0.009,0.002 -1.791,0.489 -0.058,0.008 -0.037,0.016 -1.904,0.498 -0.182,0.024 -0.114,0.046 -1.991,0.415 -0.026,0.003 -0.009,0.004 -1.944,0.406 -1.864,0.467 -0.266,0.033 -0.152,0.055 -1.909,0.333 -0.23,0.021 -0.081,0.025 -2.084,0.251 H 5.72 l -1.879,0.246 -0.237,0.015 -0.055,0.015 -2.091,0.168 -0.445,0.018 v 0 0 H -0.929 L -1.338,95.982 -3.551,95.812 -3.603,95.797 -3.814,95.784 -5.527,95.561 -7.324,95.486 -7.35,95.48 -7.553,95.471 -9.515,95.3 l -0.033,-0.009 -0.12,-0.007 -2.136,-0.256 -0.051,-0.016 -0.131,-0.01 -2.141,-0.342 -0.092,-0.033 -0.168,-0.018 -1.977,-0.429 -0.005,-0.002 -1.936,-0.42 -0.383,-0.157 -0.349,-0.064 -1.605,-0.61 -1.527,-0.457 -0.144,-0.071 -0.13,-0.023 -1.64,-0.603 -0.244,-0.137 -0.159,-0.036 -1.636,-0.773 -0.03,-0.027 -0.04,-0.009 -1.55,-0.774 -0.034,-0.031 -0.046,-0.012 -1.463,-0.773 -0.08,-0.076 -0.101,-0.027 -1.459,-0.858 -0.126,-0.127 -0.301,-0.156 -1.28,-0.939 -0.001,-0.001 -1.265,-0.927 -0.107,-0.125 -0.196,-0.117 -1.189,-1.018 v -0.001 l -1.068,-0.915 -0.997,-0.766 -0.074,-0.091 -0.133,-0.079 -1.189,-1.018 -0.248,-0.327 -0.324,-0.247 -1.007,-1.175 -0.003,-0.004 -0.003,-0.003 -1.007,-1.174 -0.235,-0.395 -0.2,-0.187 -0.898,-1.387 -0.864,-1.256 -0.163,-0.329 -0.117,-0.121 -0.83,-1.493 -0.004,-0.017 -0.01,-0.009 -0.83,-1.493 -0.054,-0.205 -0.124,-0.141 -0.661,-1.403 -0.05,-0.221 -0.173,-0.321 -0.543,-1.549 -0.591,-1.4 -0.078,-0.381 -0.208,-0.49 -0.391,-1.637 -0.447,-1.485 -0.542,-1.621 -0.043,-0.263 -0.097,-0.227 -0.414,-1.736 -0.003,-0.026 -0.005,-0.01 -0.414,-1.737 -0.038,-0.318 -0.056,-0.163 -0.24,-1.599 -0.31,-1.621 -0.04,-0.418 -0.038,-0.131 -0.167,-1.836 -0.011,-0.233 -0.007,-0.03 -0.084,-1.845 -10e-4,-0.029 v -0.003 l -0.084,-2.015 -0.006,-0.233 0.006,-0.242 0.085,-1.869 v -10e-4 l 0.084,-1.93 0.018,-0.075 0.035,-0.474 0.257,-1.718 0.001,-10e-4 0.247,-1.734 10e-4,-0.003 0.252,-1.769 0.002,-0.005 v -0.003 l 0.257,-1.718 0.026,-0.076 0.015,-0.149 0.344,-1.723 0.004,-0.011 v -0.008 l 0.344,-1.639 0.006,-0.012 10e-4,-0.011 0.344,-1.555 0.098,-0.236 0.042,-0.258 0.518,-1.557 0.126,-0.24 0.036,-0.175 0.54,-1.235 0.462,-1.237 0.225,-0.396 0.051,-0.205 0.69,-1.295 0.107,-0.113 0.147,-0.308 0.856,-1.285 0.063,-0.057 0.062,-0.12 0.939,-1.28 0.266,-0.227 0.254,-0.377 2.06,-2.06 0.978,-1.129 0.06,-0.045 0.046,-0.073 1.016,-1.101 0.084,-0.06 0.061,-0.09 1.182,-1.182 0.198,-0.134 0.129,-0.167 1.089,-0.922 0.078,-0.046 0.043,-0.054 1.199,-0.959 1.103,-0.945 0.181,-0.108 0.097,-0.116 1.337,-1.003 0.01,-0.005 0.004,-0.004 1.29,-0.968 1.184,-0.948 0.094,-0.053 0.048,-0.057 1.338,-1.003 0.218,-0.117 0.098,-0.105 1.415,-0.916 0.075,-0.022 0.062,-0.063 1.496,-0.916 0.035,-0.009 0.025,-0.026 1.665,-1 0.218,-0.061 0.165,-0.15 1.658,-0.83 0.14,-0.033 0.087,-0.074 1.655,-0.746 0.131,-0.029 0.071,-0.058 1.736,-0.711 1.493,-0.712 1.51,-0.831 0.373,-0.097 0.245,-0.196 1.652,-0.663 0.007,-0.001 1.812,-0.743 0.051,-0.01 0.023,-0.018 1.653,-0.663 0.193,-0.038 0.218,-0.109 1.565,-0.496 0.195,-0.03 0.156,-0.069 1.314,-0.329 0.083,-0.011 0.048,-0.02 1.016,-0.236 0.768,-0.21 0.183,-0.025 0.261,-0.157 0.047,-0.014 0.061,-0.05 1.677,-0.6 0.256,-0.096 0.304,-0.056 0.313,-0.137 0.572,-0.144 0.67,-0.202 0.213,-0.032 0.159,-0.067 1.061,-0.246 0.589,-0.068 0.205,-0.057 0.829,-0.07 0.766,-0.118 0.986,-0.212 0.57,-0.062 0.174,-0.048 0.897,-0.069 0.865,-0.134 0.843,-0.066 h 7.09 z M 9.442,3.062 8.777,3.165 8.429,3.193 8.344,3.216 7.606,3.273 6.81,3.444 6.577,3.469 6.468,3.507 5.401,3.672 5.083,3.697 5.002,3.719 4.373,3.772 3.807,3.903 3.414,4.022 2.079,4.922 0,5.342 h -0.229 l -0.447,0.136 -0.344,0.038 -0.491,0.135 -0.145,0.02 -0.097,0.04 -1.061,0.246 -0.007,0.001 -1.142,0.287 -1.257,0.398 -1.455,0.583 -0.007,0.001 -1.811,0.743 -0.051,0.01 -0.023,0.018 -1.391,0.558 -1.368,0.753 -0.181,0.047 -0.124,0.109 -1.741,0.83 -0.194,0.045 -0.112,0.09 -1.802,0.739 -1.497,0.675 -1.394,0.698 -1.479,0.888 -0.003,10e-4 -1.465,0.896 -1.207,0.781 -1.136,0.853 -1.185,0.948 -0.093,0.053 -0.049,0.057 -1.337,1.003 -0.009,0.005 -0.004,0.005 -1.215,0.911 -1.039,0.891 -0.094,0.056 -0.053,0.066 -1.213,0.97 -0.868,0.735 -0.948,0.948 -0.884,0.958 -1.048,1.209 -0.143,0.108 -0.111,0.164 -1.905,1.906 -0.62,0.845 -0.63,0.946 -0.387,0.726 -0.395,1.056 -0.075,0.133 -0.02,0.096 -0.497,1.137 -0.341,1.028 -0.284,1.278 V 34.2 l -0.324,1.543 -10e-4,0.002 -0.296,1.488 -0.236,1.574 v 10e-4 l -0.247,1.733 -10e-4,0.004 -0.253,1.769 -10e-4,0.005 v 0.003 l -0.212,1.414 -0.072,1.667 h -0.001 l -0.073,1.624 0.074,1.781 v 0.004 l 0.079,1.725 0.134,1.477 0.283,1.481 0.016,0.17 0.025,0.071 0.221,1.469 0.36,1.51 0.003,0.027 0.005,0.01 0.371,1.553 0.502,1.503 0.017,0.104 0.043,0.088 0.496,1.65 0.029,0.191 0.061,0.144 0.322,1.347 0.489,1.16 0.032,0.156 0.1,0.186 0.504,1.437 0.484,1.026 0.736,1.324 0.004,0.017 0.01,0.009 0.724,1.303 0.769,1.118 0.049,0.099 0.046,0.043 0.735,1.135 0.771,0.9 0.003,0.005 0.003,0.002 0.746,0.87 0.763,0.654 0.997,0.766 0.074,0.09 0.133,0.079 1.188,1.019 h 0.001 l 1.021,0.875 1.116,0.819 0.001,10e-4 1.035,0.758 1.109,0.652 1.295,0.685 1.421,0.709 1.304,0.617 1.234,0.453 1.552,0.465 0.176,0.086 0.153,0.029 1.403,0.533 1.58,0.343 0.005,0.002 1.772,0.384 1.861,0.297 1.917,0.23 1.726,0.15 1.911,0.079 0.057,0.014 0.4,0.026 1.811,0.236 1.843,0.141 H 0.799 L 2.569,85.172 4.346,84.94 4.41,84.936 4.428,84.93 6.406,84.692 8.018,84.411 9.81,83.962 l 0.152,-0.019 0.091,-0.036 1.99,-0.416 0.027,-0.002 0.008,-0.004 1.913,-0.399 1.758,-0.46 0.01,-0.001 1.79,-0.49 0.059,-0.008 0.036,-0.016 1.667,-0.436 1.457,-0.556 0.058,-0.011 0.055,-0.03 1.622,-0.591 1.639,-0.786 1.722,-0.899 1.697,-1.004 0.015,-0.004 0.01,-0.009 1.716,-1.015 1.65,-1.126 1.711,-1.244 1.762,-1.379 1.609,-1.39 1.588,-1.588 1.645,-1.728 0.052,-0.036 0.037,-0.055 1.584,-1.584 1.186,-1.449 1.191,-1.788 1.323,-2.068 0.092,-0.086 0.099,-0.188 1.361,-1.842 1.24,-1.861 1.132,-1.813 1.02,-1.885 0.865,-1.659 0.641,-1.54 0.515,-1.771 0.007,-0.014 10e-4,-0.008 0.557,-1.833 0.398,-1.598 0.216,-1.588 10e-4,-0.003 0.218,-1.598 0.055,-1.151 -0.131,-1.371 -0.011,-0.217 -0.008,-0.031 -0.065,-1.241 -0.238,-1.245 -0.333,-1.263 -0.436,-1.305 -0.004,-0.023 -0.007,-0.014 -0.496,-1.482 -10e-4,-0.006 -0.417,-1.178 -0.63,-1.398 -0.769,-1.537 -0.005,-0.02 -0.009,-0.01 -0.809,-1.616 -0.778,-1.412 -0.972,-1.494 -0.013,-0.044 -0.037,-0.035 -1,-1.583 -0.01,-0.035 L 45.851,22.31 44.911,20.793 43.885,19.494 42.636,18.011 41.388,16.607 40.114,15.258 38.703,13.926 38.615,13.801 38.49,13.712 37.256,12.406 35.932,11.28 34.464,10.199 34.367,10.084 34.187,9.979 32.736,8.745 31.204,7.724 31.203,7.723 29.599,6.654 28.156,5.831 26.692,5.134 25.284,4.559 23.981,4.205 22.265,3.907 22.156,3.867 21.975,3.846 20.432,3.479 19.156,3.297 17.628,3.225 17.598,3.217 17.388,3.207 15.865,3.062 Z"
         id="path10" />
      <g
         transform="translate(12,25)"
         id="g14">
        <path
           fill-mode="evenodd"
           fill="#e71224"
           d="m 2.164,-4.922 1.697,1.145 0.569,0.844 0.013,0.005 0.411,0.079 0.457,0.181 0.143,0.116 0.227,0.053 0.537,0.268 0.121,0.111 0.124,0.049 0.084,0.023 0.047,0.028 0.759,0.299 0.038,0.011 0.021,0.012 0.004,0.002 0.003,0.002 0.417,0.25 0.486,0.498 0.914,0.732 0.048,0.06 0.047,0.014 0.06,0.037 0.043,0.007 0.923,0.469 0.449,0.214 0.029,0.029 0.035,0.018 0.371,0.264 0.382,0.218 0.233,0.231 0.568,0.337 0.459,0.394 0.549,0.411 0.211,0.253 0.348,0.234 0.549,0.549 0.548,0.479 0.199,0.267 0.269,0.199 0.671,0.755 0.108,0.175 0.121,0.099 0.577,0.743 0.635,0.792 0.724,0.885 0.094,0.165 0.099,0.085 0.665,0.914 0.304,0.587 0.164,0.181 0.493,0.982 0.093,0.393 0.366,0.907 0.247,1.146 0.125,1.155 v 2.87 L 21,17.966 l -0.171,1.378 -0.028,0.087 -0.02,0.208 -0.258,1.384 -0.065,0.171 -0.033,0.241 -0.431,1.557 -0.119,0.252 -0.041,0.216 -0.603,1.556 -0.094,0.118 -0.044,0.196 -0.718,1.518 -0.635,1.511 -0.244,0.293 -0.108,0.385 -0.942,1.542 -0.021,0.021 -0.007,0.023 -1.026,1.625 -0.135,0.127 -0.152,0.279 -1.19,1.531 -0.354,0.288 -0.305,0.413 -1.514,1.346 -0.225,0.138 -0.124,0.148 -1.675,1.256 -0.357,0.19 -0.144,0.145 -1.833,1.084 -0.202,0.056 -0.151,0.136 -1.826,0.915 -0.209,0.05 -0.335,0.188 -1.989,0.747 -0.054,0.01 -0.049,0.027 -2.073,0.748 -0.207,0.036 -0.199,0.093 -2.073,0.582 -0.137,0.019 -0.094,0.041 -2.074,0.498 -0.263,0.032 -0.142,0.051 -1.994,0.333 -0.161,0.014 -0.058,0.018 -1.914,0.251 -0.206,0.013 -0.05,0.014 -1.92,0.168 -0.484,0.021 h -1.857 l -0.483,-0.022 -1.879,-0.17 -0.048,-0.014 -0.168,-0.012 -1.886,-0.256 -0.275,-0.091 -0.442,-0.062 -1.811,-0.516 -0.322,-0.154 -0.245,-0.05 -1.639,-0.688 -0.19,-0.159 -0.276,-0.071 -1.716,-0.942 -0.1,-0.097 -0.261,-0.125 -1.539,-1.025 -0.085,-0.094 -0.177,-0.095 -1.448,-1.107 -0.146,-0.177 -0.25,-0.16 -1.343,-1.259 -1.174,-1.09 -0.12,-0.168 -0.167,-0.12 -1.01,-1.094 -0.418,-0.661 -0.274,-0.274 -0.577,-0.988 -0.075,-0.274 -0.461,-0.975 -0.328,-1.144 -0.032,-0.227 -0.064,-0.159 -0.247,-1.146 -0.125,-1.155 v 0 -1.435 l 0.073,-0.878 0.257,-1.551 0.063,-0.175 0.036,-0.275 0.431,-1.641 0.301,-0.661 0.078,-0.331 0.787,-1.575 0.794,-1.83 0.162,-0.191 0.45,-0.85 1.112,-1.482 1.059,-1.743 0.212,-0.204 0.268,-0.455 1.318,-1.55 1.336,-1.809 0.163,-0.138 0.152,-0.246 1.524,-1.693 0.168,-0.123 0.124,-0.177 1.602,-1.517 0.145,-0.094 0.09,-0.116 1.596,-1.344 0.11,-0.065 0.059,-0.072 1.508,-1.173 0.383,-0.21 0.16,-0.163 1.664,-1 0.162,-0.045 0.122,-0.114 1.576,-0.831 h 10e-4 l 1.3,-0.723 1.007,-0.648 0.061,-0.018 0.049,-0.051 1.074,-0.662 0.331,-0.094 0.253,-0.22 1.065,-0.492 0.239,-0.054 0.343,-0.178 0.975,-0.326 0.104,-0.017 0.088,-0.043 0.521,-0.157 0.414,-0.185 0.145,-0.031 0.183,-0.103 0.639,-0.241 0.219,-0.041 0.225,-0.106 0.553,-0.159 1.506,-0.215 h 1.361 l 0.68,-0.069 0.913,-0.185 H 0.084 Z M -3.053,5.627 -3.621,5.88 -3.903,5.941 -4.289,6.129 -5.091,6.371 -5.717,6.581 -6.256,6.83 -7.054,7.322 v 0 l -1.095,0.704 -0.173,0.051 -0.142,0.138 -1.492,0.83 -0.079,0.02 -0.054,0.051 -1.485,0.782 -1.274,0.766 -1.183,0.92 -1.402,1.181 -1.335,1.264 -1.205,1.339 -1.292,1.749 -0.112,0.095 -0.103,0.175 -1.162,1.366 -0.975,1.605 -0.127,0.122 -0.15,0.282 -0.89,1.187 -0.608,1.402 -0.076,0.089 -0.032,0.136 -0.596,1.195 -0.22,0.838 -0.139,0.834 v 0.422 l 0.1,0.465 0.091,0.318 0.448,0.485 1.034,0.96 0.006,0.008 0.009,0.006 1.155,1.083 1.087,0.831 1.187,0.791 1.246,0.684 1.052,0.442 1.095,0.312 1.366,0.186 1.488,0.135 h 1.379 l 1.602,-0.139 1.742,-0.228 1.742,-0.291 1.848,-0.445 1.814,-0.509 1.877,-0.677 0.008,-0.001 1.735,-0.652 1.441,-0.722 1.437,-0.849 1.273,-0.955 0.985,-0.876 0.721,-0.927 0.872,-1.381 0.678,-1.112 0.533,-1.267 0.058,-0.069 0.024,-0.11 0.682,-1.442 0.423,-1.09 0.289,-1.043 0.181,-0.967 0.106,-0.851 v -1.947 0 L 10.032,14.572 9.379,13.774 9.358,13.738 9.334,13.719 8.667,12.885 8.642,12.841 8.614,12.818 8.129,12.194 7.794,11.818 7.365,11.443 7.265,11.308 7.112,11.205 6.706,10.799 6.32,10.51 6.229,10.401 6.062,10.302 5.859,10.128 5.681,10.026 5.558,9.904 5.252,9.749 5.206,9.716 4.537,9.396 4.344,9.341 3.749,8.97 3.233,8.676 2.906,8.35 2.132,7.829 1.789,7.486 1.51,7.376 1.478,7.367 H 0.929 L -1.151,6.948 -2.849,5.803 -2.985,5.601 Z"
           id="path12" />
      </g>
      <g
         transform="translate(-19.0692,-16.6358)"
         id="g18">
        <path
           fill-mode="evenodd"
           fill="#e71224"
           d="m 14.963,-11.801 0.839,0.139 0.827,0.127 0.095,0.033 0.181,0.019 0.988,0.211 0.137,0.055 0.176,0.025 0.814,0.232 0.994,0.22 1.009,0.188 0.054,0.021 0.087,0.009 1.26,0.279 0.006,0.003 1.219,0.27 h 10e-4 l 1.058,0.222 1.222,0.183 0.292,0.1 0.421,0.062 1.23,0.368 1.299,0.308 0.33,0.142 0.297,0.055 1.401,0.532 1.29,0.45 v 0 l 1.353,0.45 0.121,0.064 0.099,0.018 1.601,0.626 0.055,0.043 0.092,0.02 1.234,0.535 1.381,0.385 0.002,0.002 1.586,0.426 1.688,0.374 1.52,0.303 1.609,0.257 h 0.002 l 1.735,0.266 0.044,0.016 0.086,0.008 1.87,0.345 0.059,0.023 0.094,0.01 1.552,0.344 1.625,0.174 0.041,0.012 0.121,0.009 1.935,0.275 0.111,0.038 0.223,0.024 1.941,0.415 0.1,0.04 0.134,0.018 1.807,0.485 0.196,0.091 0.187,0.033 1.738,0.624 0.225,0.124 0.154,0.034 1.666,0.762 0.003,0.003 1.63,0.746 0.02,0.017 0.026,0.006 1.597,0.762 0.059,0.053 0.083,0.02 1.458,0.763 0.029,0.028 0.038,0.009 1.348,0.741 1.17,0.612 1.265,0.541 0.062,0.052 0.096,0.021 1.46,0.695 0.063,0.055 0.088,0.022 1.457,0.762 0.03,0.028 0.037,0.01 1.388,0.762 0.095,0.092 0.115,0.033 1.313,0.811 1.363,0.743 1.375,0.719 0.074,0.07 0.095,0.025 1.318,0.762 0.002,0.002 1.291,0.747 0.038,0.038 0.046,0.013 1.247,0.762 0.002,0.002 1.223,0.746 0.082,0.086 0.19,0.095 1.075,0.758 1.081,0.699 0.033,0.035 0.071,0.035 1.106,0.76 0.038,0.043 0.077,0.04 0.823,0.603 0.831,0.498 0.054,0.056 0.063,0.018 0.782,0.502 0.727,0.391 0.272,0.26 0.741,0.459 0.473,0.425 0.539,0.392 0.017,0.02 0.031,0.016 0.654,0.49 0.595,0.379 0.302,0.321 0.587,0.395 0.581,0.581 0.58,0.523 0.158,0.215 0.217,0.158 0.676,0.744 0.085,0.135 0.101,0.08 0.605,0.739 0.042,0.074 0.048,0.039 0.467,0.6 0.161,0.293 0.138,0.131 0.464,0.727 0.057,0.197 0.152,0.16 0.462,0.856 0.084,0.329 0.388,0.855 0.174,0.65 0.242,0.561 0.021,0.103 0.042,0.052 0.391,0.974 0.414,0.944 0.031,0.146 0.101,0.183 0.378,1.021 0.394,0.788 0.065,0.272 0.131,0.163 0.396,0.985 0.047,0.24 0.131,0.272 0.33,1.119 0.001,0.007 0.312,0.996 0.024,0.151 0.054,0.12 0.332,1.256 0.019,0.145 0.038,0.093 0.265,1.189 0.049,0.43 0.053,0.175 0.134,1.2 0.002,0.045 0.003,0.01 0.134,1.269 0.015,0.276 0.01,0.04 0.067,1.348 0.008,0.28 v 0 l -0.007,0.267 -0.069,1.373 -0.006,0.027 -0.008,0.177 -0.138,1.519 -0.001,10e-4 -0.135,1.495 -0.133,1.592 -0.044,0.157 -0.048,0.469 -0.346,1.668 -0.014,0.033 -0.005,0.044 -0.369,1.604 -0.246,1.54 -0.016,0.046 -0.008,0.088 -0.345,1.798 -0.328,1.839 -0.026,0.07 -0.013,0.117 -0.415,1.873 -0.035,0.085 -0.015,0.109 -0.485,1.807 -0.001,0.003 -0.462,1.786 -0.02,0.043 -0.006,0.046 -0.52,1.825 -0.452,1.876 -0.035,0.081 -0.014,0.097 -0.554,1.943 -0.135,0.283 -0.044,0.227 -0.701,1.723 -0.571,1.652 -0.04,0.074 -0.011,0.059 -0.693,1.806 -0.001,0.002 -0.595,1.589 -0.046,0.082 -0.012,0.06 -0.694,1.668 -0.097,0.118 -0.043,0.182 -0.67,1.343 -0.579,1.392 -0.581,1.551 -0.169,0.299 -0.042,0.178 -0.763,1.527 -0.002,0.003 -0.746,1.494 -0.002,0.003 -0.678,1.358 -0.003,0.003 -0.577,1.157 -0.546,1.336 -0.003,0.004 -0.518,1.27 -0.419,1.32 -0.092,0.18 -0.028,0.146 -0.474,1.188 -0.355,1.129 -0.357,0.702 -0.071,0.27 -0.626,1.115 -0.046,0.046 -0.015,0.057 -0.509,0.85 -0.465,0.931 -0.031,0.034 -0.012,0.046 -0.626,1.185 -0.11,0.116 -0.152,0.319 -0.726,1.089 -0.675,1.167 -0.059,0.059 -0.02,0.071 -0.653,1.045 -0.647,1.102 -0.068,0.068 -0.078,0.162 -0.645,0.968 -0.644,1.031 -0.024,0.024 -0.008,0.025 -0.761,1.177 -0.195,0.181 -0.221,0.373 -0.785,0.916 -0.924,1.122 -0.255,0.2 -0.208,0.292 -1.086,1.018 -0.287,0.184 -0.164,0.195 -1.075,0.807 -0.131,0.07 -0.061,0.068 -1.071,0.737 -0.184,0.091 -0.075,0.077 -1.202,0.735 -0.014,0.004 -0.009,0.01 -1.116,0.683 -1.152,0.789 -0.227,0.111 -0.09,0.09 -1.473,0.872 -0.251,0.069 -0.186,0.164 -1.533,0.735 -0.022,0.005 -0.01,0.009 -1.533,0.734 -0.071,0.016 -0.04,0.035 -1.6,0.735 -0.023,0.005 -0.01,0.009 -1.6,0.734 -0.114,0.026 -0.063,0.052 -1.735,0.735 -0.005,10e-4 -1.627,0.717 -0.111,0.024 -0.058,0.047 -1.802,0.735 -0.006,0.002 -1.698,0.719 -0.025,0.005 -0.01,0.009 -1.734,0.735 -0.193,0.039 -0.234,0.122 -2.004,0.669 -0.276,0.046 -0.237,0.1 -2.005,0.469 -0.223,0.026 -0.119,0.043 -1.941,0.336 -0.153,0.013 -0.057,0.019 -1.945,0.269 -0.023,0.002 -0.006,0.001 -1.944,0.269 -0.311,0.022 -0.067,0.018 -1.888,0.135 -0.175,0.006 -0.018,0.005 -1.758,0.067 -0.216,0.005 h -5.852 l -0.19,-0.004 -1.915,-0.068 -0.016,-0.004 -0.151,-0.005 -1.991,-0.137 -0.076,-0.02 -0.322,-0.024 -1.867,-0.276 -0.003,-0.001 -1.712,-0.253 -1.808,-0.194 -0.056,-0.017 -0.163,-0.012 -1.799,-0.276 -0.057,-0.02 -0.11,-0.01 -1.803,-0.346 -0.046,-0.018 -0.07,-0.008 -1.695,-0.375 -1.441,-0.23 -1.607,-0.193 -0.042,-0.013 -0.108,-0.008 -1.799,-0.276 -0.085,-0.03 -0.162,-0.016 -1.668,-0.347 -0.051,-0.02 -0.071,-0.009 -1.513,-0.362 -1.518,-0.242 -0.091,-0.033 -0.168,-0.018 -1.601,-0.347 -0.054,-0.022 -0.071,-0.008 -1.67,-0.417 -0.105,-0.046 -0.118,-0.018 -1.457,-0.442 -1.434,-0.357 -1.388,-0.301 -1.414,-0.256 -0.056,-0.021 -0.091,-0.01 -1.6,-0.347 -0.076,-0.031 -0.102,-0.013 -1.602,-0.417 -0.053,-0.024 -0.057,-0.008 -1.671,-0.486 -0.015,-0.007 -0.007,-0.001 -1.603,-0.487 -0.26,-0.129 -0.201,-0.04 -1.396,-0.581 -1.341,-0.407 -0.239,-0.118 -0.19,-0.038 -1.48,-0.604 -1.244,-0.472 -1.115,-0.371 -1.187,-0.296 -0.095,-0.042 -0.107,-0.016 -1.399,-0.418 -0.099,-0.049 -0.093,-0.015 -1.398,-0.488 -0.287,-0.156 -0.186,-0.041 -1.054,-0.495 -1.054,-0.433 -0.172,-0.141 -0.258,-0.064 -1.185,-0.627 -0.003,-0.002 -1.154,-0.61 -0.171,-0.162 -0.203,-0.06 -1.177,-0.761 -0.144,-0.155 -0.302,-0.172 -1.099,-0.892 -0.044,-0.056 -0.076,-0.045 -1.027,-0.89 -0.011,-0.015 -0.018,-0.011 -1.163,-1.026 -0.04,-0.054 -0.065,-0.041 -1.023,-0.956 -0.052,-0.072 -0.078,-0.053 -1.157,-1.156 -0.046,-0.07 -0.066,-0.047 -1.034,-1.098 -0.895,-0.895 -0.047,-0.069 -0.066,-0.047 -1.086,-1.154 -0.097,-0.151 -0.119,-0.093 -1.012,-1.214 -1.126,-1.324 -0.01,-0.017 -0.012,-0.01 -1.082,-1.285 -0.042,-0.072 -0.05,-0.039 -1.004,-1.255 -0.99,-1.114 -0.197,-0.322 -0.191,-0.169 -0.818,-1.168 -0.843,-1 -0.919,-0.981 -0.2,-0.312 -0.206,-0.175 -0.943,-1.279 -0.042,-0.082 -0.044,-0.038 -0.941,-1.344 v 0 l -0.839,-1.162 -0.256,-0.497 -0.156,-0.167 -0.735,-1.4 v -0.002 l -0.697,-1.265 -0.033,-0.126 -0.078,-0.087 -0.735,-1.466 -0.028,-0.12 -0.064,-0.074 -0.735,-1.6 -0.005,-0.023 -0.008,-0.01 -0.735,-1.6 -0.039,-0.177 -0.079,-0.098 -0.667,-1.665 -0.014,-0.071 -0.041,-0.073 -0.6,-1.596 -0.004,-0.022 -0.008,-0.015 -0.6,-1.596 -0.048,-0.258 -0.121,-0.266 -0.468,-1.732 v -0.005 l -0.445,-1.52 -0.02,-0.138 -0.044,-0.1 -0.4,-1.596 -0.012,-0.094 -0.023,-0.055 -0.321,-1.406 -0.363,-1.329 -0.048,-0.35 -0.077,-0.215 -0.267,-1.601 -0.001,-0.01 -0.265,-1.517 -10e-4,-0.01 -0.246,-1.35 -0.296,-1.24 -0.038,-0.319 -0.056,-0.162 -0.2,-1.331 -0.021,-0.267 -0.02,-0.072 -0.135,-1.476 -0.011,-0.232 -0.007,-0.03 -0.067,-1.485 -0.006,-0.254 v -1.531 l -0.064,-1.656 -0.004,-0.216 v -1.837 l 0.015,-0.409 0.138,-1.788 0.02,-0.073 0.02,-0.282 0.276,-1.867 0.036,-0.104 0.022,-0.202 0.414,-1.941 0.047,-0.115 0.021,-0.151 0.553,-2.011 0.054,-0.115 0.019,-0.116 0.691,-2.079 0.018,-0.034 0.005,-0.025 0.76,-2.147 0.075,-0.137 0.021,-0.105 0.898,-2.144 0.074,-0.089 0.032,-0.141 1.103,-2.277 0.031,-0.034 0.011,-0.047 1.239,-2.411 0.072,-0.077 0.026,-0.101 1.353,-2.369 1.195,-2.193 0.124,-0.128 0.045,-0.154 1.442,-2.267 0.067,-0.063 0.071,-0.139 1.507,-2.126 0.09,-0.077 0.085,-0.152 1.641,-2.052 0.208,-0.166 0.178,-0.264 1.837,-1.837 0.043,-0.029 0.029,-0.041 1.835,-1.768 0.186,-0.122 0.115,-0.147 1.965,-1.626 0.121,-0.07 0.065,-0.077 1.96,-1.488 0.042,-0.022 0.02,-0.024 1.823,-1.351 0.029,-0.015 0.013,-0.015 1.755,-1.283 0.372,-0.194 0.144,-0.141 1.879,-1.075 0.049,-0.013 0.033,-0.033 1.81,-1.006 0.18,-0.047 0.124,-0.111 1.806,-0.87 0.21,-0.049 0.123,-0.099 1.802,-0.736 0.114,-0.022 0.127,-0.07 1.664,-0.6 0.149,-0.027 0.142,-0.069 1.337,-0.408 1.084,-0.445 1.274,-0.638 0.13,-0.031 0.079,-0.068 1.464,-0.667 0.158,-0.035 0.21,-0.117 1.379,-0.519 1.081,-0.541 1.301,-0.77 0.203,-0.056 0.15,-0.136 1.34,-0.671 1.301,-0.77 0.202,-0.056 0.151,-0.136 1.378,-0.69 1.261,-0.722 h 0.003 l 1.264,-0.733 0.003,-10e-4 1.122,-0.661 0.115,-0.032 0.085,-0.08 0.379,-0.205 0.032,-0.027 0.364,-0.216 0.105,-0.092 -0.15,-0.745 0.419,-2.079 1.145,-1.698 1.698,-1.145 0.913,-0.184 0.256,-0.087 0.024,-0.003 0.014,-0.008 0.37,-0.125 0.024,-0.004 0.014,-0.007 0.575,-0.193 0.306,-0.05 0.262,-0.108 0.574,-0.129 0.409,-0.103 0.846,-0.106 0.119,-0.034 0.134,-0.058 0.293,-0.061 0.378,-0.179 0.438,-0.127 0.123,-0.017 0.087,-0.038 0.507,-0.128 1.333,-0.168 h 6.396 z M 8.402,-1.191 8.33,-1.16 8.038,-1.099 7.659,-0.92 7.281,-0.811 7.034,-0.727 5.652,-0.499 5.551,-0.474 5.442,-0.46 5.377,-0.433 5.259,-0.407 5.342,0 4.922,2.079 4.176,3.185 4.055,3.396 4.004,3.44 3.777,3.777 3.05,4.267 2.705,4.566 2.472,4.657 2.079,4.922 1.875,4.963 1.648,5.179 0.834,5.619 -0.193,6.224 -0.226,6.233 -0.25,6.256 l -1.267,0.735 -0.031,0.008 -0.021,0.02 -1.403,0.803 -0.167,0.045 -0.12,0.109 -1.34,0.671 -1.301,0.769 -0.203,0.056 -0.15,0.137 -1.34,0.671 -1.301,0.769 -0.202,0.056 -0.151,0.137 -1.466,0.734 -0.209,0.05 -0.335,0.188 -1.477,0.555 -1.254,0.571 -1.352,0.678 -0.248,0.059 -0.149,0.121 -1.462,0.599 -0.231,0.046 -0.271,0.133 -1.458,0.445 -1.477,0.533 -1.571,0.642 -1.546,0.745 -1.66,0.923 -0.003,0.001 -1.618,0.925 -1.508,1.103 -0.002,0.001 -1.808,1.339 -0.001,0.001 -1.852,1.405 -1.728,1.43 -1.655,1.594 -1.592,1.592 -1.354,1.692 -1.332,1.878 -1.26,1.981 -1.149,2.108 -0.028,0.029 -0.009,0.036 -1.31,2.294 -1.152,2.241 -0.987,2.039 -0.77,1.839 -0.695,1.963 -0.606,1.819 -0.463,1.685 -0.339,1.582 -0.218,1.477 -0.105,1.372 v 1.527 l 0.064,1.656 0.004,0.216 V 58.6 l 0.057,1.257 0.112,1.224 0.148,0.983 0.278,1.167 0.025,0.206 0.042,0.113 0.267,1.464 0.005,0.053 0.007,0.02 0.268,1.533 0.004,0.051 0.007,0.018 0.229,1.371 0.327,1.194 0.021,0.156 0.043,0.103 0.333,1.461 10e-4,0.005 0.37,1.478 0.43,1.47 0.013,0.085 0.027,0.06 0.413,1.53 0.507,1.348 0.004,0.022 0.008,0.015 0.601,1.596 v 0.004 l 0.611,1.524 0.67,1.46 0.005,0.023 0.009,0.01 0.725,1.579 0.659,1.315 0.672,1.221 0.019,0.074 0.046,0.049 0.574,1.094 0.647,0.896 0.029,0.054 0.028,0.025 0.924,1.32 0.719,0.976 0.801,0.854 0.086,0.133 0.105,0.082 1.083,1.285 0.15,0.256 0.146,0.129 0.777,1.109 0.876,0.986 0.085,0.138 0.099,0.079 1.051,1.314 1.034,1.228 0.001,0.001 1.141,1.342 0.017,0.03 0.022,0.017 0.919,1.102 0.922,0.98 0.895,0.895 0.047,0.069 0.065,0.047 1.034,1.098 1.034,1.034 0.899,0.839 1.087,0.96 0.936,0.81 0.797,0.648 0.721,0.466 0.976,0.516 0.003,0.002 0.903,0.477 0.949,0.39 0.079,0.065 0.126,0.028 0.913,0.429 1.004,0.35 1.125,0.337 1.256,0.312 0.173,0.077 0.183,0.03 1.467,0.487 0.095,0.05 0.08,0.015 1.465,0.557 0.05,0.028 0.035,0.007 1.276,0.521 1.356,0.412 0.26,0.129 0.202,0.04 1.396,0.581 1.34,0.407 0.002,10e-4 1.498,0.435 1.371,0.357 1.371,0.297 1.414,0.256 0.055,0.021 0.091,0.01 1.6,0.347 0.054,0.022 0.072,0.009 1.67,0.416 0.104,0.046 0.118,0.018 1.457,0.442 1.434,0.357 1.323,0.287 1.57,0.251 0.137,0.048 0.235,0.028 1.655,0.396 1.4,0.291 1.545,0.237 1.62,0.194 0.051,0.016 0.131,0.01 1.732,0.277 0.101,0.035 0.183,0.021 1.795,0.397 1.584,0.304 1.542,0.237 1.793,0.192 0.049,0.014 0.141,0.011 1.867,0.276 0.003,10e-4 1.605,0.237 1.675,0.115 1.717,0.062 h 5.652 l 1.581,-0.061 1.643,-0.118 1.768,-0.244 0.024,-0.002 0.005,-0.002 1.9,-0.262 1.726,-0.299 1.645,-0.385 1.612,-0.538 1.529,-0.648 0.025,-0.005 0.01,-0.008 1.734,-0.735 0.068,-0.014 0.033,-0.027 1.802,-0.735 v -10e-4 l 1.566,-0.69 0.069,-0.014 0.035,-0.03 1.732,-0.734 1.493,-0.685 0.023,-0.005 0.01,-0.009 1.6,-0.735 0.004,-0.001 1.483,-0.71 0.022,-0.005 0.01,-0.009 1.362,-0.653 1.142,-0.675 1.121,-0.768 0.177,-0.086 0.072,-0.075 1.202,-0.735 0.014,-0.004 0.009,-0.009 1.111,-0.68 0.878,-0.604 0.76,-0.57 0.622,-0.584 0.741,-0.9 0.034,-0.026 0.027,-0.045 0.582,-0.68 0.548,-0.848 0.654,-1.047 0.036,-0.034 0.037,-0.076 0.6,-0.901 0.614,-1.046 0.046,-0.045 0.015,-0.054 0.641,-1.025 0.709,-1.226 0.076,-0.076 0.088,-0.186 0.668,-1.002 0.472,-0.893 0.514,-1.031 0.133,-0.145 0.051,-0.185 0.584,-0.975 0.293,-0.522 0.253,-0.803 0.094,-0.185 0.03,-0.152 0.476,-1.194 0.424,-1.338 0.104,-0.203 0.032,-0.162 0.625,-1.532 0.003,-0.003 0.61,-1.494 0.105,-0.129 0.048,-0.202 0.694,-1.391 0.003,-0.003 0.678,-1.358 0.002,-0.003 0.746,-1.494 0.003,-0.003 0.608,-1.219 0.525,-1.401 0.046,-0.082 0.012,-0.06 0.694,-1.668 0.097,-0.118 0.043,-0.182 0.67,-1.343 0.579,-1.392 0.58,-1.551 0.005,-0.009 0.658,-1.713 0.583,-1.689 0.07,-0.129 0.02,-0.102 0.641,-1.576 0.438,-1.538 0.452,-1.876 0.035,-0.081 0.013,-0.096 0.538,-1.887 0.457,-1.766 0.004,-0.009 v -0.002 l 0.451,-1.678 0.357,-1.611 0.322,-1.806 0.005,-0.016 0.002,-0.021 0.329,-1.712 0.259,-1.624 0.042,-0.118 0.024,-0.208 0.404,-1.759 0.253,-1.218 0.11,-1.321 0.002,-0.005 v -0.015 l 0.138,-1.518 V 47.464 L 96.26,46.091 96.309,45.112 96.261,44.164 96.143,43.042 96.142,43.034 96.039,42.11 95.847,41.247 95.563,40.174 95.276,39.259 95.265,39.188 95.24,39.135 94.968,38.214 94.734,37.632 94.308,36.781 94.256,36.563 94.059,36.209 93.631,35.049 93.239,34.155 93.212,34.03 93.159,33.964 92.764,32.979 V 32.977 L 92.406,32.146 92.337,31.816 92.141,31.384 92.03,30.968 91.938,30.798 91.704,30.431 91.42,30.067 90.941,29.481 90.536,29.035 90.05,28.598 89.971,28.489 89.851,28.409 89.586,28.144 89.31,27.969 89.211,27.863 88.994,27.748 88.196,27.15 87.477,26.628 87.329,26.455 87.061,26.289 86.858,26.107 86.509,25.919 86.359,25.775 86.181,25.723 85.284,25.147 84.324,24.572 84.208,24.453 83.937,24.312 82.975,23.607 82.011,22.945 80.908,22.231 80.858,22.178 80.749,22.123 79.734,21.407 78.64,20.739 78.638,20.737 77.47,20.024 76.229,19.306 76.227,19.304 75.046,18.621 73.701,17.918 73.679,17.897 73.651,17.89 72.127,17.059 72.025,16.961 71.9,16.926 70.58,16.109 69.361,15.439 68.085,14.772 66.841,14.181 65.497,13.606 65.36,13.491 65.157,13.441 63.699,12.679 63.67,12.651 63.632,12.641 62.284,11.901 61.004,11.231 59.529,10.527 57.96,9.809 57.957,9.807 56.555,9.165 55.271,8.704 53.841,8.32 52.26,7.982 50.626,7.749 48.807,7.554 48.639,7.503 48.241,7.46 46.47,7.067 44.807,6.76 43.114,6.5 43.109,6.499 41.38,6.223 41.32,6.202 41.207,6.19 39.472,5.844 39.44,5.832 39.395,5.827 37.522,5.412 37.438,5.377 37.328,5.362 35.521,4.877 35.511,4.872 H 35.507 L 33.769,4.386 33.389,4.207 33.117,4.15 31.617,3.499 30.278,2.977 28.961,2.539 28.938,2.527 28.923,2.524 27.525,2.036 27.469,2.006 27.425,1.998 26.316,1.576 25.195,1.31 25.075,1.258 24.934,1.238 23.933,0.939 22.925,0.788 22.831,0.755 22.647,0.736 21.319,0.458 21.306,0.452 21.296,0.451 20.035,0.172 20.03,0.17 l -1.123,-0.249 -1.009,-0.188 -0.055,-0.021 -0.086,-0.009 -1.26,-0.279 -0.121,-0.05 -0.152,-0.022 -0.792,-0.225 -0.624,-0.133 -0.749,-0.115 -0.014,-0.004 -0.022,-0.002 -0.382,-0.064 z"
           id="path16" />
      </g>
    </g>
    <g
       transform="translate(-551.2973,-274.9936)"
       id="g24">
      <path
         fill-mode="evenodd"
         fill="#000000"
         d="m 0.221,-2.82 1.106,0.261 0.207,0.103 0.03,0.027 0.042,0.011 0.344,0.314 0.243,0.101 0.082,0.195 0.384,0.352 0.184,0.275 0.169,0.556 0.247,0.381 0.091,0.36 0.093,0.74 L 2.574,2.954 0.476,3.824 -1.357,3.19 -1.968,2.247 -2.098,2.193 -2.192,1.966 -2.195,1.963 -2.517,1.668 -2.968,0.095 -2.098,-2.003 0,-2.872 h 0.095 z"
         id="path22" />
    </g>
    <g
       transform="translate(-506.9848,-275.1186)"
       id="g28">
      <path
         fill-mode="evenodd"
         fill="#000000"
         d="m 1.129,-2.91 0.306,0.101 0.303,0.224 0.384,0.116 0.131,0.087 0.232,0.116 0.064,0.059 0.133,0.086 0.105,0.032 0.296,0.197 0.075,0.083 0.117,0.076 0.726,0.3 0.098,0.239 0.042,0.027 L 4.296,-0.72 4.87,0.666 4.001,2.764 1.902,3.633 H 1.807 L 1.087,3.545 0.686,3.445 0.313,3.201 -0.219,3.04 -0.35,2.953 -0.583,2.837 -0.688,2.741 -0.769,2.714 -0.814,2.681 -0.885,2.659 -1.118,2.504 -2.098,2.098 -2.968,0 V -0.095 L -2.098,-2.193 0,-3.063 h 0.19 z"
         id="path26" />
    </g>
    <g
       transform="translate(-523.1723,-255.4936)"
       id="g32">
      <path
         fill-mode="evenodd"
         fill="#000000"
         d="M 2.098,-2.003 2.968,0.095 2.098,2.193 0,3.063 h -0.285 l -2.099,-0.87 -0.869,-2.098 0.869,-2.098 2.099,-0.869 H 0 Z"
         id="path30" />
    </g>
    <g
       transform="translate(-544.9848,-231.2436)"
       id="g44">
      <path
         fill-mode="evenodd"
         fill="#000000"
         d="m 1.442,-2.433 0.682,0.222 0.064,0.087 0.291,0.121 0.263,0.636 0.454,0.619 0.089,0.264 0.158,0.96 L 2.574,2.574 0.476,3.443 -1.268,2.877 -1.625,2.389 -2.098,2.193 -2.968,0.095 -2.098,-2.003 0,-2.872 h 0.38 z"
         id="path34" />
      <g
         transform="translate(-21.5625,-5.375)"
         id="g38">
        <path
           fill-mode="evenodd"
           fill="#000000"
           d="M 2.193,-2.193 3.063,-0.095 2.193,2.003 2.098,2.098 0,2.968 -2.098,2.098 -2.968,0 l 0.02,-0.048 -0.02,-0.047 0.87,-2.098 L 0,-3.063 h 0.095 v 0 z"
           id="path36" />
      </g>
      <g
         transform="translate(-19.0625,-24)"
         id="g42">
        <path
           fill-mode="evenodd"
           fill="#000000"
           d="M 2.479,-2.098 3.348,0 2.479,2.098 0.38,2.968 H 0 L -2.098,2.098 -2.968,0 -2.098,-2.098 0,-2.968 h 0.38 z"
           id="path40" />
      </g>
    </g>
    <g
       transform="translate(-497.2348,-250.8686)"
       id="g48">
      <path
         fill-mode="evenodd"
         fill="#000000"
         d="m 0.859,-2.612 0.407,0.068 0.167,0.095 0.497,0.102 0.685,0.293 1.282,1.075 L 4.394,0.666 3.525,2.764 1.427,3.633 0.258,3.393 -0.08,3.249 -0.315,3.21 -0.543,3.08 -1.137,2.94 -1.344,2.837 -1.735,2.478 -2.193,2.289 -2.347,1.919 -2.517,1.763 -2.754,0.935 -3.063,0.19 l 0.314,-1.327 0.103,-0.207 0.4,-0.437 0.053,-0.127 0.102,-0.042 0.518,-0.567 L 0,-2.968 Z"
         id="path46" />
    </g>
    <g
       transform="translate(-461.4848,-248.1186)"
       id="g56">
      <path
         fill-mode="evenodd"
         fill="#000000"
         d="m 0.967,-2.567 0.205,0.041 0.22,0.133 0.506,0.119 0.214,0.107 0.106,0.021 1.69,1.02 L 4.584,0.761 3.715,2.859 1.617,3.728 1.035,3.671 0.54,3.572 0.32,3.439 -0.186,3.32 -0.4,3.213 -0.506,3.192 -1.498,2.593 -2.003,2.384 -2.031,2.356 -2.193,2.289 -3.063,0.19 l 0.314,-1.327 0.103,-0.207 0.4,-0.437 0.053,-0.127 0.102,-0.042 0.518,-0.567 L 0,-2.968 Z"
         id="path50" />
      <g
         transform="translate(-1.1875,-27.875)"
         id="g54">
        <path
           fill-mode="evenodd"
           fill="#000000"
           d="M 2.193,-2.098 3.063,0 2.193,2.098 0.095,2.968 H 0 L -2.098,2.098 -2.968,0 -2.098,-2.098 0,-2.968 h 0.095 z"
           id="path52" />
      </g>
    </g>
    <g
       transform="translate(-458.9223,-229.2436)"
       id="g60">
      <path
         fill-mode="evenodd"
         fill="#000000"
         d="m 2.098,-2.003 0.87,2.098 V 1.141 L 2.098,3.24 0,4.109 -2.098,3.24 -2.968,1.141 V 0.095 L -2.098,-2.003 0,-2.872 Z"
         id="path58" />
    </g>
    <g
       transform="translate(-482.9848,-210.7436)"
       id="g64">
      <path
         fill-mode="evenodd"
         fill="#000000"
         d="M 2.098,-2.098 2.968,0 2.098,2.098 0,2.968 -2.098,2.098 -2.968,0 -2.098,-2.098 0,-2.968 Z"
         id="path62" />
    </g>
    <g
       transform="translate(-483.6098,-233.8686)"
       id="g68">
      <path
         fill-mode="evenodd"
         fill="#000000"
         d="M 2.384,-2.479 3.253,-0.38 2.802,1.192 2.275,1.671 2.098,2.098 1.729,2.252 1.573,2.422 0.744,2.659 0,2.968 -2.098,2.098 -2.968,0 v -0.095 l 0.314,-1.327 0.103,-0.207 0.093,-0.102 0.036,-0.127 0.296,-0.269 0.028,-0.066 0.083,-0.035 0.069,-0.062 0.469,-0.512 0.138,-0.04 0.107,-0.098 0.173,-0.087 1.344,-0.321 z"
         id="path66" />
    </g>
    <g
       transform="translate(-496.4223,-164.8686)"
       id="g72">
      <path
         fill-mode="evenodd"
         fill="#000000"
         d="m 1.573,-2.517 0.512,0.564 0.108,0.045 0.096,0.095 0.054,0.132 0.221,0.186 0.28,0.373 0.117,0.35 0.27,0.336 L 3.414,0.019 3.503,0.475 3.604,0.626 4.109,2.283 3.24,4.381 1.141,5.25 -0.274,4.891 -1.328,3.929 -1.511,3.654 -1.513,3.648 -1.518,3.643 -1.701,3.369 -1.932,2.614 -2.166,2.2 -2.196,2.019 -2.251,1.856 -2.559,1.517 -2.646,1.344 -2.968,0 -2.098,-2.098 0,-2.968 Z"
         id="path70" />
    </g>
    <g
       transform="translate(-453.7348,-197.8686)"
       id="g76">
      <path
         fill-mode="evenodd"
         fill="#000000"
         d="M 2.193,-2.193 3.063,-0.095 2.193,2.003 2.098,2.098 0,2.968 -2.098,2.098 -2.968,0 l 0.02,-0.048 -0.02,-0.047 0.87,-2.098 L 0,-3.063 h 0.095 v 0 z"
         id="path74" />
    </g>
    <g
       transform="translate(-570.7973,-197.4936)"
       id="g80">
      <path
         fill-mode="evenodd"
         fill="#000000"
         d="M 2.193,-2.098 3.063,0 2.193,2.098 0.095,2.968 H 0 L -2.098,2.098 -2.968,0 -2.098,-2.098 0,-2.968 h 0.095 z"
         id="path78" />
    </g>
    <path
       style="fill:#ffffff;stroke-width:0.186738"
       d="M 65.638545,100.74685 C 62.798364,100.34192 61.663378,100.15072 55.554672,99.048165 54.116786,98.788641 51.427753,98.211866 49.579043,97.766441 47.730333,97.321016 45.2579,96.730751 44.084746,96.454738 42.911594,96.178726 40.514592,95.423283 38.758076,94.775975 37.001561,94.128669 34.894235,93.411522 34.075131,93.182318 31.907838,92.575861 29.400582,91.339621 28.010759,90.19219 26.141637,88.649051 23.339302,85.717473 20.783624,82.631739 19.50767,81.091147 17.943769,79.202053 17.308289,78.433751 15.042793,75.694745 13.775826,73.578887 12.274296,70.026897 10.76968,66.467606 10.141717,64.298139 9.0311543,58.822594 8.2537614,54.989717 7.9982356,50.723384 8.3961244,48.219946 c 0.2745569,-1.727459 1.2828822,-4.93484 2.2589746,-7.185575 0.876281,-2.020581 3.446061,-6.662677 4.728635,-8.541891 1.427005,-2.090831 4.009108,-4.661416 6.838135,-6.807631 3.487122,-2.645474 5.875888,-3.938919 9.336919,-5.055663 0.564884,-0.182267 1.657304,-0.622497 2.427599,-0.97829 0.770296,-0.355792 1.870143,-0.835663 2.444104,-1.066379 1.154442,-0.464054 6.627044,-3.424481 9.720894,-5.258558 2.289893,-1.35748 3.046247,-2.200127 3.240126,-3.6097892 l 0.123236,-0.8960355 1.245947,-0.3023108 c 1.551604,-0.3764738 4.759734,-0.3919835 6.292613,-0.030422 1.312728,0.309634 4.441147,0.9755861 5.784162,1.2312848 1.589327,0.3025947 4.202297,1.1603807 4.188488,1.3749977 -0.0072,0.112194 -0.07832,0.370946 -0.15801,0.575006 -0.09195,0.235455 -0.01539,0.678951 0.209526,1.213799 0.303026,0.72059 0.50869,0.915491 1.418494,1.344264 1.562551,0.736397 1.901895,0.780168 2.861029,0.369035 0.60142,-0.257799 0.919051,-0.533072 1.089267,-0.944009 0.132155,-0.31905 0.312822,-0.580092 0.401482,-0.580092 0.08866,0 1.401972,0.240888 2.918473,0.535306 3.248017,0.630579 6.64778,1.225381 8.732905,1.527856 2.422131,0.351361 4.017008,0.971195 9.24355,3.592419 6.325857,3.172551 10.062177,5.292267 14.378857,8.157511 3.8899,2.581964 5.68513,3.926643 6.43998,4.823732 0.53315,0.633611 2.63962,5.558183 3.29079,7.69329 0.80149,2.628029 0.76853,5.596297 -0.11094,9.990504 -0.24667,1.232473 -0.54117,2.78707 -0.65445,3.45466 -0.40302,2.37524 -2.09231,8.357169 -3.21578,11.387367 -1.35264,3.648304 -2.25847,5.648254 -2.35005,5.188597 -0.0355,-0.178124 -0.45317,-0.495781 -0.92819,-0.705906 -0.83457,-0.369169 -0.89363,-0.371274 -1.75246,-0.06244 -0.77356,0.278169 -0.93819,0.434467 -1.26995,1.205663 -0.38058,0.88469 -0.38061,0.887396 -0.0131,1.744804 0.30258,0.705901 0.51865,0.923275 1.21402,1.221343 0.46525,0.199433 0.97818,0.311854 1.13982,0.249823 0.19815,-0.07603 0.0226,0.427958 -0.53862,1.546819 -0.45789,0.912779 -1.26896,2.836052 -1.80236,4.273938 -1.02161,2.753913 -1.52688,3.761903 -3.55703,7.096059 -2.17241,3.567807 -2.66068,4.271338 -3.62982,5.230049 -1.018002,1.007064 -4.318,3.132903 -6.734112,4.338081 -2.136276,1.065594 -9.705026,4.256748 -10.938504,4.611918 -3.856508,1.11045 -11.50499,1.3675 -17.072255,0.57377 z m 13.28051,-1.140276 c 0.655153,-0.250205 0.833932,-0.435702 1.105653,-1.147195 0.308141,-0.806856 0.307928,-0.90038 -0.0043,-1.895709 -0.767644,-2.446919 -2.032681,-3.368874 -3.732021,-2.719891 -0.714564,0.272896 -0.879387,0.440458 -1.162844,1.182175 -0.392868,1.028012 -0.375845,1.175083 0.310777,2.685003 0.930975,2.047267 1.819439,2.530843 3.482759,1.895617 z M 64.611484,94.372362 c 4.22597,-0.563259 11.00705,-2.194194 14.377116,-3.457881 4.972417,-1.864523 10.458283,-5.472245 14.996019,-9.861968 2.828954,-2.736679 4.235768,-4.395234 6.105021,-7.197479 0.75362,-1.129767 1.90833,-2.852429 2.56602,-3.828137 2.62369,-3.892349 4.74554,-9.145869 5.39268,-13.351795 0.60079,-3.904625 0.18176,-10.135107 -0.75982,-11.297673 -0.12477,-0.154059 -0.46065,-0.952365 -0.74639,-1.774014 -0.99541,-2.862319 -3.93368,-8.258502 -6.14478,-11.28501 -1.119824,-1.532794 -2.993152,-3.599418 -5.46027,-6.023677 -2.473352,-2.430385 -3.91464,-3.615148 -6.77609,-5.570061 -3.413009,-2.331733 -5.614152,-3.279117 -9.637496,-4.148033 -2.440193,-0.527004 -2.944246,-0.570652 -7.567058,-0.655263 -4.426654,-0.08102 -5.229969,-0.04789 -7.562905,0.311906 -1.480796,0.228375 -3.444963,0.681827 -4.539479,1.047994 -1.061111,0.354991 -2.615709,0.819998 -3.454661,1.03335 -1.857148,0.472286 -4.959614,1.669604 -7.594362,2.930853 -1.078415,0.516235 -3.011157,1.436786 -4.294984,2.04567 -3.494065,1.657141 -6.662049,3.798487 -11.165818,7.54735 -2.117882,1.76289 -5.896498,5.708019 -6.942759,7.248708 -0.663862,0.977579 -0.817142,1.106137 -1.123411,0.942228 -0.261265,-0.139825 -0.589812,-0.09744 -1.247633,0.160955 -0.765174,0.300563 -0.943136,0.472995 -1.24348,1.204845 -0.338919,0.825847 -0.339434,0.883079 -0.01556,1.731134 0.190498,0.498812 0.480661,0.915157 0.672823,0.965408 0.392899,0.102745 0.408676,0.208516 0.137174,0.919647 -0.110386,0.289129 -0.399041,1.492059 -0.641456,2.673179 -1.71124,8.337688 -1.708723,14.372987 0.0087,20.88466 0.252982,0.959185 0.459968,1.773773 0.459968,1.810199 0,0.03642 -0.383765,-0.103534 -0.852812,-0.311015 -0.827398,-0.365998 -0.879876,-0.367509 -1.760937,-0.05068 -0.779316,0.280239 -0.949711,0.435448 -1.20131,1.094252 -0.362498,0.949187 -0.362551,1.041135 -0.0011,1.944424 0.236011,0.589849 0.451886,0.790965 1.124894,1.047989 0.786182,0.300246 0.883267,0.299928 1.73313,-0.0057 0.772684,-0.277854 0.941159,-0.432481 1.18859,-1.090896 0.180183,-0.479464 0.323497,-0.662111 0.382164,-0.487046 1.511033,4.508984 3.659159,8.511859 6.097019,11.361351 0.920885,1.076377 4.13245,3.81192 6.311806,5.376267 4.026,2.88987 10.404823,5.19619 16.203141,5.858393 6.719557,0.767412 8.826663,0.808902 12.978318,0.255547 z m 41.218376,-59.21886 c 0.61176,-0.251964 0.85807,-0.488003 1.07571,-1.03084 0.34155,-0.851914 0.3496,-1.137355 0.055,-1.951947 -0.29763,-0.823089 -2.23696,-1.83522 -3.46364,-1.807665 -0.95956,0.02156 -1.81453,0.722174 -2.08745,1.710595 -0.24416,0.884264 0.312,2.147706 1.14538,2.602007 1.58555,0.864337 2.14012,0.945255 3.27496,0.47785 z M 26.915656,29.142048 c 0.681606,-0.301506 0.8728,-0.50574 1.134516,-1.211882 0.300908,-0.811892 0.298761,-0.885431 -0.04879,-1.671116 -0.285427,-0.645257 -0.524917,-0.886421 -1.114557,-1.122348 -0.936271,-0.374622 -1.112406,-0.374 -2.065344,0.0073 -0.618279,0.247386 -0.839883,0.472605 -1.129251,1.147672 -0.344732,0.804228 -0.346477,0.875342 -0.0411,1.674969 0.255447,0.668874 0.470156,0.902409 1.078787,1.173367 0.982771,0.43752 1.200815,0.437724 2.185732,0.0021 z"
       id="path1525"
       transform="matrix(1.3149244,0,0,1.3149244,-597.8433,-290.942)" />
    <path
       style="fill:#ffffff;stroke-width:0.186738"
       d="m 57.868631,86.37736 c -0.04538,-0.04538 -1.34088,-0.17532 -2.878884,-0.288744 -4.721792,-0.348226 -8.527455,-1.322433 -12.047235,-3.083955 -1.963623,-0.982722 -2.850599,-1.586567 -5.314726,-3.618215 -1.946357,-1.60475 -2.527829,-2.241907 -3.684647,-4.037505 -1.561189,-2.423257 -2.321196,-4.205951 -3.409815,-7.998164 -1.10593,-3.852514 -1.405856,-5.56868 -1.523066,-8.714922 -0.08968,-2.407317 -0.03885,-3.365858 0.302064,-5.695521 0.790984,-5.405322 1.550048,-8.084054 2.798153,-9.874661 1.076901,-1.544988 5.536566,-5.870352 8.017439,-7.775998 3.404001,-2.614733 5.608889,-3.964 8.588047,-5.255402 1.385668,-0.600657 2.703434,-1.21269 2.92837,-1.360073 0.224934,-0.147383 0.929443,-0.479456 1.565575,-0.737939 l 1.156604,-0.46997 0.260124,0.622568 c 0.186643,0.4467 0.474224,0.708234 1.018023,0.925819 0.940897,0.376472 1.119394,0.376712 2.054007,0.0028 0.593232,-0.237365 0.828836,-0.476425 1.121435,-1.137893 0.26976,-0.609841 0.32043,-0.930806 0.186458,-1.181135 -0.325793,-0.608748 -0.207235,-0.704098 1.162796,-0.935183 0.740716,-0.124938 1.644063,-0.415913 2.007438,-0.64661 1.808977,-1.148477 10.058628,-1.371819 14.61001,-0.395536 3.36629,0.722077 5.640842,1.927904 9.579706,5.078568 1.691267,1.35283 5.150515,4.786893 6.568799,6.520975 1.248678,1.526711 3.570946,5.269716 4.634315,7.469535 2.694909,5.575034 3.098679,9.31574 1.566587,14.51362 -0.792267,2.687905 -2.055338,5.066619 -4.985398,9.388894 -4.588941,6.769374 -8.881393,10.720763 -15.440578,14.213729 -1.587666,0.845483 -3.774664,1.67338 -6.068997,2.297447 -2.556391,0.695348 -7.347628,1.700695 -9.430289,1.978762 -1.935116,0.258367 -5.161098,0.375971 -5.342315,0.194755 z m 3.968677,-12.064368 c 3.892076,-0.39372 8.932057,-1.75829 11.814783,-3.198844 1.774278,-0.88664 4.016476,-2.442684 5.254568,-3.646571 2.03559,-1.979355 4.392761,-6.116925 5.456964,-9.578675 1.112408,-3.618553 0.924989,-7.833726 -0.44546,-10.0187 -1.573605,-2.508875 -4.870205,-5.82631 -6.824532,-6.867666 -0.548755,-0.292402 -1.249833,-0.761972 -1.557951,-1.043489 -0.308119,-0.281516 -1.106425,-0.747653 -1.774015,-1.035859 -0.66759,-0.288207 -1.381864,-0.707259 -1.587276,-0.931227 -0.205412,-0.223969 -0.66759,-0.607612 -1.027061,-0.852542 -0.619667,-0.422215 -0.789256,-0.443425 -3.267922,-0.408713 -2.486,0.03482 -2.71059,0.07035 -4.575091,0.723897 -2.033753,0.712874 -3.12258,1.202546 -3.921506,1.7636 -0.256765,0.180316 -1.349185,0.806995 -2.427599,1.39262 -4.231375,2.297815 -7.448007,5.391252 -11.158271,10.730917 -1.077212,1.550278 -2.466195,4.301898 -3.057341,6.056688 -0.492478,1.461898 -0.658673,4.039095 -0.358771,5.563471 0.434564,2.208846 1.1479,3.4285 3.132464,5.355847 3.762672,3.654192 6.944724,5.342074 11.161811,5.920653 2.187741,0.300156 2.839344,0.309571 5.162206,0.07459 z M 88.255974,63.005849 c 0.656076,-0.250558 0.83381,-0.43538 1.107273,-1.151436 0.292908,-0.766966 0.298484,-0.929862 0.0553,-1.615601 -0.217028,-0.611977 -0.444533,-0.849923 -1.151644,-1.2045 l -0.881188,-0.441866 -0.860091,0.352973 c -0.735074,0.301667 -0.910236,0.480629 -1.205072,1.231222 -0.336086,0.855608 -0.335946,0.899325 0.0054,1.695572 0.269908,0.629669 0.515329,0.885685 1.068944,1.115088 0.90841,0.376421 0.923638,0.376572 1.861115,0.01854 z M 41.356407,47.807663 c 0.708044,-0.303504 0.933255,-0.524828 1.240259,-1.218862 0.391305,-0.884609 0.366134,-1.23621 -0.162763,-2.273596 -0.211085,-0.414023 -0.558268,-0.692655 -1.139786,-0.914739 -0.792836,-0.302787 -0.887057,-0.302091 -1.815281,0.01343 -0.883106,0.300176 -1.010313,0.414671 -1.298185,1.168452 -0.279952,0.733045 -0.288146,0.929591 -0.06672,1.600511 0.283131,0.857896 0.839289,1.422896 1.72067,1.748024 0.326845,0.120569 0.608305,0.22561 0.625467,0.233423 0.01716,0.0078 0.420516,-0.152672 0.896342,-0.356635 z m 46.463451,-2.41285 c 0.648055,-0.277788 0.918372,-0.537134 1.229282,-1.179388 0.480704,-0.993003 0.479901,-0.971065 0.07176,-1.960608 -0.420617,-1.019786 -1.652484,-1.63953 -2.68966,-1.353152 -1.464511,0.404371 -2.146732,1.882812 -1.568039,3.398099 0.260692,0.682615 0.447289,0.873928 1.095499,1.123198 1.000871,0.384884 0.893818,0.386503 1.86116,-0.02815 z M 78.592279,32.947375 c 0.963802,-0.385637 1.459773,-1.526834 1.155181,-2.658 -0.325271,-1.207964 -2.378411,-2.284707 -3.835329,-2.011387 -0.768368,0.144147 -1.528915,0.958554 -1.684124,1.80339 -0.391564,2.131377 2.104168,3.770312 4.364272,2.865997 z"
       id="path1564"
       transform="matrix(1.3149244,0,0,1.3149244,-597.8433,-290.942)" />
    <path
       style="fill:#ffffff;stroke-width:0.186738"
       d="m 56.861841,65.857993 c -0.513531,-0.131774 -1.438331,-0.508909 -2.055112,-0.838081 -1.236475,-0.659894 -4.00921,-2.967487 -4.224021,-3.515414 -0.829938,-2.116961 5.187243,-10.534973 9.205977,-12.879124 3.578026,-2.087084 5.032149,-2.86901 5.884723,-3.164393 l 0.968555,-0.335566 0.748398,0.495266 c 0.411619,0.272397 1.205606,0.566964 1.764416,0.654594 0.695776,0.109108 1.302345,0.367685 1.924445,0.820378 0.499636,0.363578 1.202541,0.810316 1.562013,0.992752 0.949604,0.481935 2.082805,1.509853 3.162073,2.868293 0.861936,1.084892 0.945764,1.276079 0.941606,2.147492 -0.0064,1.348408 -0.281415,2.392748 -1.121241,4.258328 -1.437701,3.193693 -2.779437,4.738005 -5.239769,6.030873 -1.471841,0.77343 -4.532487,1.816444 -6.612743,2.253505 -1.96102,0.41201 -5.683163,0.52573 -6.90932,0.211097 z"
       id="path1603"
       transform="matrix(1.3149244,0,0,1.3149244,-597.8433,-290.942)" />
  </g>
</svg>
